<svg width="49" height="47" viewBox="0 0 49 47" fill="none" xmlns="http://www.w3.org/2000/svg">
<rect width="49" height="47" rx="5" fill="#F1B000"/>
<path d="M28.0659 11.942C29.759 13.6372 30.8187 15.8623 31.0677 18.2453C31.3168 20.6282 30.74 23.0244 29.4339 25.033C29.6619 25.223 29.8519 25.432 30.1179 25.622C30.4979 25.926 31.0109 26.306 31.6569 26.743C32.3029 27.199 32.7209 27.484 32.9109 27.636C33.7089 28.225 34.2979 28.719 34.6969 29.118C35.3049 29.726 35.8369 30.353 36.2929 31.018C36.7679 31.683 37.1289 32.329 37.4139 32.994C37.6799 33.659 37.8129 34.286 37.7559 34.894C37.7179 35.502 37.4899 36.015 37.0719 36.433C36.6539 36.851 36.1409 37.079 35.5329 37.117C34.9439 37.155 34.2979 37.041 33.6519 36.756C32.9869 36.49 32.3219 36.11 31.6759 35.635C31.0109 35.179 30.3839 34.647 29.7759 34.039C29.3769 33.64 28.8829 33.051 28.3129 32.272C28.1229 32.025 27.8379 31.607 27.4199 31.018C27.0019 30.41 26.6599 29.935 26.3559 29.536C26.0519 29.156 25.8049 28.871 25.5199 28.586C23.5478 29.6186 21.2975 29.9949 19.0968 29.66C16.896 29.3251 14.8596 28.2965 13.2839 26.724C9.21787 22.639 9.21787 16.008 13.2839 11.942C14.2541 10.9706 15.4062 10.2 16.6744 9.6743C17.9426 9.14854 19.302 8.87793 20.6749 8.87793C22.0477 8.87793 23.4071 9.14854 24.6754 9.6743C25.9436 10.2 27.0957 10.9706 28.0659 11.942ZM25.3869 24.026C26.6281 22.7757 27.3247 21.0853 27.3247 19.3235C27.3247 17.5617 26.6281 15.8713 25.3869 14.621C24.77 14.0023 24.0371 13.5114 23.2301 13.1764C22.4232 12.8415 21.5581 12.669 20.6844 12.669C19.8107 12.669 18.9456 12.8415 18.1386 13.1764C17.3317 13.5114 16.5988 14.0023 15.9819 14.621C15.3632 15.2379 14.8723 15.9708 14.5373 16.7777C14.2024 17.5847 14.0299 18.4498 14.0299 19.3235C14.0299 20.1972 14.2024 21.0623 14.5373 21.8692C14.8723 22.6762 15.3632 23.4091 15.9819 24.026C16.5988 24.6447 17.3317 25.1356 18.1386 25.4705C18.9456 25.8055 19.8107 25.9779 20.6844 25.9779C21.5581 25.9779 22.4232 25.8055 23.2301 25.4705C24.0371 25.1356 24.77 24.6447 25.3869 24.026Z" fill="#FAFAFA"/>
</svg>
