<svg width="20" height="20" viewBox="0 0 20 20" fill="none" xmlns="http://www.w3.org/2000/svg">
<g id="Group 1">
<path id="Vector" d="M12.3268 5.124C11.7016 4.50538 10.8763 4.16667 10.001 4.16667C9.12576 4.16667 8.30051 4.50773 7.67531 5.124C7.02511 5.76613 6.66667 6.62937 6.66667 7.55377V7.73253C6.66667 7.83603 6.74169 7.9207 6.83339 7.9207H7.8337C7.92539 7.9207 8.00041 7.83603 8.00041 7.73253V7.55377C8.00041 6.51647 8.89861 5.67205 10.001 5.67205C11.1035 5.67205 12.0017 6.51647 12.0017 7.55377C12.0017 8.28529 11.5432 8.95565 10.8325 9.26378C10.3907 9.45431 10.0156 9.78831 9.74679 10.2258C9.47379 10.6727 9.33208 11.209 9.33208 11.7524V12.2581C9.33208 12.3616 9.4071 12.4462 9.4988 12.4462H10.4991C10.5908 12.4462 10.6658 12.3616 10.6658 12.2581V11.7241C10.6669 11.4958 10.7289 11.2731 10.8438 11.0851C10.9587 10.8972 11.121 10.7526 11.3098 10.6704C12.5393 10.1364 13.3333 8.91331 13.3333 7.55377C13.3354 6.62937 12.977 5.76613 12.3268 5.124ZM9.16744 14.8925C9.16744 15.142 9.25527 15.3813 9.4116 15.5578C9.56793 15.7342 9.77995 15.8333 10.001 15.8333C10.2221 15.8333 10.4341 15.7342 10.5905 15.5578C10.7468 15.3813 10.8346 15.142 10.8346 14.8925C10.8346 14.6429 10.7468 14.4036 10.5905 14.2272C10.4341 14.0507 10.2221 13.9516 10.001 13.9516C9.77995 13.9516 9.56793 14.0507 9.4116 14.2272C9.25527 14.4036 9.16744 14.6429 9.16744 14.8925Z" fill="black" fill-opacity="0.78"/>
<path id="Vector_2" d="M10 0C4.47768 0 0 4.47768 0 10C0 15.5223 4.47768 20 10 20C15.5223 20 20 15.5223 20 10C20 4.47768 15.5223 0 10 0ZM10 18.3036C5.41518 18.3036 1.69643 14.5848 1.69643 10C1.69643 5.41518 5.41518 1.69643 10 1.69643C14.5848 1.69643 18.3036 5.41518 18.3036 10C18.3036 14.5848 14.5848 18.3036 10 18.3036Z" fill="black" fill-opacity="0.78"/>
</g>
</svg>
